# xmcd CD database file generated by OrangeCD 6.0
#
# Track frame offsets:
#	150
#	13286
#	25170
#	38515
#	48844
#	62526
#	71659
#	84814
#	96001
#	112713
#	122854
#	137819
#	148079
#	156259
#	164921
#	178606
#	193988
#	208639
#	217062
#	228524
#	239096
#	254032
#	265775
#	275267
#	292352
#
# Disc length: 4053 seconds
#
# Revision: 2
# Processed by: cddbd v1.5.2PL0 Copyright (c) Steve Scherf et al.
# Submitted via: OrangeCD 6.0
#
DISCID=820fd319
DTITLE=Various Artist - Nashville Mandolins Play Their 100 Best
DYEAR=2005
DGENRE=Classical
TTITLE0=Beautiful Isle of Somewhere
TTITLE1=Amazing Grace
TTITLE2='Tis Sweet to Be Remembered
TTITLE3=I'm a Man of Constant Sorrow
TTITLE4=Farther Along
TTITLE5=Carry Me Back to Old Virginia
TTITLE6=I'll Be All Smiles Tonight
TTITLE7=Beautiful Life
TTITLE8=Prisoner's Song
TTITLE9=Wabash Cannonball
TTITLE10=Uncloudy Day
TTITLE11=Sweet Bunch of Daisies
TTITLE12=Red Wing
TTITLE13=He's Got the Whole World in His Hands
TTITLE14=Alexander's Ragtime Band
TTITLE15=Nearer My God to Thee
TTITLE16=Cripple Creek
TTITLE17=Golden Slippers
TTITLE18=In the Garden
TTITLE19=Lorena
TTITLE20=Rock of Ages
TTITLE21=Flop Eared Mule
TTITLE22=When the Saints Go Marching In
TTITLE23=Leaning on the Everlasting Arms
TTITLE24=South Wind Waltz
EXTD=
EXTT0=
EXTT1=
EXTT2=
EXTT3=
EXTT4=
EXTT5=
EXTT6=
EXTT7=
EXTT8=
EXTT9=
EXTT10=
EXTT11=
EXTT12=
EXTT13=
EXTT14=
EXTT15=
EXTT16=
EXTT17=
EXTT18=
EXTT19=
EXTT20=
EXTT21=
EXTT22=
EXTT23=
EXTT24=
PLAYORDER=
